<?xml version="1.0" encoding="UTF-8" standalone="no"?>
<svg width="595px" height="119px" viewBox="0 0 595 119" version="1.1" xmlns="http://www.w3.org/2000/svg" xmlns:xlink="http://www.w3.org/1999/xlink">
    <!-- Generator: Sketch 3.8.3 (29802) - http://www.bohemiancoding.com/sketch -->
    <title>Page 1</title>
    <desc>Created with Sketch.</desc>
    <defs></defs>
    <g id="Wireframes" stroke="none" stroke-width="1" fill="none" fill-rule="evenodd">
        <g id="Landing" transform="translate(-187.000000, -93.000000)">
            <g id="Page-1" transform="translate(187.000000, 93.000000)">
                <path d="M12.9644495,110.793103 L15.6938073,118.452874 L17.331422,118.452874 L9.4162844,96.5678161 L7.91513761,96.5678161 L0,118.452874 L1.63761468,118.452874 L4.36697248,110.793103 L12.9644495,110.793103 Z M4.91284404,109.562069 L7.64220183,102.175862 C8.0516055,100.808046 8.46100917,99.7137931 8.73394495,98.345977 C9.00688073,99.5770115 9.27981651,100.671264 9.82568807,102.175862 L12.418578,109.425287 L4.91284404,109.425287 L4.91284404,109.562069 Z M25.7924312,117.358621 C26.8841743,118.17931 29.0676606,118.863218 30.978211,118.863218 C35.6181193,118.863218 37.9380734,115.990805 37.9380734,112.844828 C37.9380734,109.562069 36.0275229,107.92069 32.4793578,106.552874 C29.3405963,105.321839 27.9759174,104.090805 27.9759174,101.628736 C27.9759174,99.8505747 29.2041284,97.662069 32.7522936,97.662069 C34.662844,97.662069 36.0275229,98.2091954 36.5733945,98.7563218 L37.1192661,97.5252874 C36.4369266,96.9781609 34.7993119,96.4310345 32.7522936,96.4310345 C29.0676606,96.4310345 26.4747706,98.7563218 26.4747706,101.902299 C26.4747706,104.911494 28.521789,106.689655 32.0699541,107.92069 C35.2087156,109.151724 36.4369266,110.51954 36.4369266,112.981609 C36.4369266,115.717241 34.3899083,117.495402 31.2511468,117.495402 C29.4770642,117.495402 27.7029817,116.948276 26.4747706,115.990805 L25.7924312,117.358621 Z M53.2224771,110.51954 L53.2224771,109.562069 C53.2224771,107.373563 52.2672018,102.586207 47.2178899,102.586207 C43.2603211,102.586207 40.2580275,105.868966 40.2580275,111.066667 C40.2580275,115.58046 42.9873853,118.863218 47.4908257,118.863218 C50.2201835,118.863218 51.8577982,118.17931 52.4036697,117.905747 L51.9942661,116.674713 C51.1754587,117.085057 49.9472477,117.495402 47.6272936,117.495402 C44.4885321,117.495402 41.7591743,115.58046 41.7591743,110.51954 L53.2224771,110.51954 Z M41.8956422,109.288506 C42.168578,106.826437 43.6697248,103.817241 47.081422,103.817241 C50.766055,103.817241 51.7213303,107.1 51.7213303,109.288506 L41.8956422,109.288506 Z M56.3612385,118.452874 L57.8623853,118.452874 L57.8623853,109.835632 C57.8623853,109.288506 57.8623853,108.741379 57.9988532,108.331034 C58.4082569,105.868966 59.9094037,103.954023 62.0928899,103.954023 L62.7752294,103.954023 L62.7752294,102.586207 L62.2293578,102.586207 C60.0458716,102.586207 58.5447248,104.090805 57.8623853,106.142529 L57.8623853,102.996552 L56.4977064,102.996552 C56.4977064,104.501149 56.6341743,106.142529 56.6341743,107.647126 L56.6341743,118.452874 L56.3612385,118.452874 Z M64.2763761,102.85977 L70.4174312,118.452874 L71.7821101,118.452874 L78.059633,102.85977 L76.4220183,102.85977 L72.7373853,112.571264 C72.1915138,114.075862 71.6456422,115.443678 71.0997706,116.674713 C70.690367,115.443678 70.1444954,114.075862 69.5986239,112.571264 L65.9139908,102.85977 L64.2763761,102.85977 Z M80.516055,118.452874 L82.0172018,118.452874 L82.0172018,102.85977 L80.516055,102.85977 L80.516055,118.452874 Z M81.3348624,97.1149425 C80.6525229,97.1149425 80.1066514,97.7988506 80.1066514,98.4827586 C80.1066514,99.1666667 80.6525229,99.8505747 81.3348624,99.8505747 C82.1536697,99.8505747 82.5630734,99.3034483 82.5630734,98.4827586 C82.5630734,97.7988506 82.0172018,97.1149425 81.3348624,97.1149425 L81.3348624,97.1149425 Z M96.7557339,116.537931 C95.9369266,116.948276 94.7087156,117.358621 92.934633,117.358621 C89.3864679,117.358621 86.793578,114.75977 86.793578,110.656322 C86.793578,106.963218 88.9770642,103.817241 93.0711009,103.817241 C94.8451835,103.817241 95.9369266,104.364368 96.7557339,104.774713 L97.3016055,103.543678 C96.7557339,103.133333 95.1181193,102.586207 93.2075688,102.586207 C88.5676606,102.586207 85.1559633,106.005747 85.1559633,110.929885 C85.1559633,115.58046 88.1582569,118.863218 92.6616972,118.863218 C94.8451835,118.863218 96.4827982,118.17931 97.1651376,117.768966 L96.7557339,116.537931 Z M111.357798,110.51954 L111.357798,109.562069 C111.357798,107.373563 110.402523,102.586207 105.353211,102.586207 C101.395642,102.586207 98.3933486,105.868966 98.3933486,111.066667 C98.3933486,115.58046 101.122706,118.863218 105.626147,118.863218 C108.355505,118.863218 109.993119,118.17931 110.538991,117.905747 L110.129587,116.674713 C109.31078,117.085057 108.082569,117.495402 105.899083,117.495402 C102.760321,117.495402 100.030963,115.58046 100.030963,110.51954 L111.357798,110.51954 Z M100.030963,109.288506 C100.303899,106.826437 101.805046,103.817241 105.216743,103.817241 C108.901376,103.817241 109.856651,107.1 109.856651,109.288506 L100.030963,109.288506 Z M127.870413,102.586207 C124.049312,102.586207 120.501147,105.458621 120.501147,110.793103 C120.501147,115.717241 123.639908,118.726437 127.597477,118.726437 C131.009174,118.726437 134.966743,116.264368 134.966743,110.382759 C135.103211,105.732184 132.100917,102.586207 127.870413,102.586207 L127.870413,102.586207 Z M127.870413,103.817241 C131.96445,103.817241 133.602064,107.783908 133.602064,110.656322 C133.602064,114.622989 131.009174,117.495402 127.870413,117.495402 C124.731651,117.495402 122.275229,114.622989 122.275229,110.656322 C122.138761,107.373563 123.912844,103.817241 127.870413,103.817241 L127.870413,103.817241 Z M140.016055,118.452874 L140.016055,104.090805 L144.24656,104.090805 L144.24656,102.85977 L140.016055,102.85977 L140.016055,102.03908 C140.016055,99.0298851 140.561927,96.4310345 143.56422,96.4310345 C144.519495,96.4310345 145.065367,96.7045977 145.474771,96.8413793 L146.020642,95.6103448 C145.611239,95.3367816 144.655963,95.0632184 143.700688,95.0632184 C142.472477,95.0632184 141.244266,95.4735632 140.288991,96.4310345 C139.06078,97.662069 138.514908,99.5770115 138.514908,102.03908 L138.514908,102.85977 L136.331422,102.85977 L136.331422,104.090805 L138.514908,104.090805 L138.514908,118.452874 L140.016055,118.452874 Z M167.582569,116.401149 C166.354358,116.948276 164.580275,117.358621 162.669725,117.358621 C156.801606,117.358621 153.526376,113.528736 153.526376,107.647126 C153.526376,101.355172 157.074541,97.5252874 162.942661,97.5252874 C164.716743,97.5252874 166.354358,97.9356322 167.446101,98.4827586 L167.991972,97.2517241 C167.309633,96.8413793 165.672018,96.2942529 162.942661,96.2942529 C156.119266,96.2942529 151.888761,101.218391 151.888761,107.647126 C151.888761,115.443678 156.938073,118.726437 162.123853,118.726437 C164.716743,118.726437 166.900229,118.17931 167.991972,117.632184 L167.582569,116.401149 Z M180.819954,108.741379 C180.819954,106.005747 180.001147,102.586207 175.497706,102.586207 C174.133028,102.586207 172.358945,102.996552 170.994266,103.954023 L171.540138,105.048276 C172.631881,104.227586 173.99656,103.817241 175.361239,103.817241 C179.045872,103.817241 179.318807,106.826437 179.318807,108.467816 L179.318807,108.878161 C173.041284,108.878161 169.902523,110.929885 169.902523,114.622989 C169.902523,116.674713 171.40367,118.863218 174.405963,118.863218 C176.862385,118.863218 178.636468,117.495402 179.318807,116.264368 L179.455275,116.264368 L179.728211,118.452874 L181.09289,118.452874 C180.956422,117.221839 180.819954,115.990805 180.819954,114.75977 L180.819954,108.741379 L180.819954,108.741379 Z M179.318807,113.528736 C179.318807,113.802299 179.318807,114.212644 179.182339,114.486207 C178.636468,115.990805 177.135321,117.632184 174.542431,117.632184 C172.904817,117.632184 171.40367,116.674713 171.40367,114.349425 C171.40367,110.656322 175.90711,110.109195 179.318807,110.245977 L179.318807,113.528736 Z M185.050459,118.452874 L186.551606,118.452874 L186.551606,109.835632 C186.551606,109.288506 186.551606,108.741379 186.688073,108.331034 C187.097477,105.868966 188.598624,103.954023 190.78211,103.954023 L191.46445,103.954023 L191.46445,102.586207 L190.918578,102.586207 C188.735092,102.586207 187.233945,104.090805 186.551606,106.142529 L186.551606,102.996552 L185.186927,102.996552 C185.186927,104.501149 185.323394,106.142529 185.323394,107.647126 L185.323394,118.452874 L185.050459,118.452874 Z M204.292431,95.4735632 L204.292431,105.321839 C203.610092,103.954023 201.836009,102.586207 199.243119,102.586207 C195.422018,102.586207 192.283257,105.868966 192.283257,111.066667 C192.283257,115.717241 195.149083,118.863218 198.970183,118.863218 C201.836009,118.863218 203.74656,117.221839 204.428899,115.58046 L204.565367,118.589655 L205.930046,118.589655 C205.930046,117.495402 205.793578,116.127586 205.793578,114.896552 L205.793578,95.4735632 L204.292431,95.4735632 Z M204.292431,112.16092 C204.292431,112.708046 204.292431,112.981609 204.155963,113.391954 C203.473624,115.990805 201.426606,117.495402 199.243119,117.495402 C195.558486,117.495402 193.784404,114.349425 193.784404,110.793103 C193.784404,106.689655 195.96789,103.817241 199.243119,103.817241 C201.699541,103.817241 203.610092,105.595402 204.155963,107.647126 C204.292431,108.057471 204.292431,108.604598 204.292431,109.014943 L204.292431,112.16092 Z M210.297018,118.452874 L211.798165,118.452874 L211.798165,102.85977 L210.297018,102.85977 L210.297018,118.452874 Z M210.979358,97.1149425 C210.297018,97.1149425 209.751147,97.7988506 209.751147,98.4827586 C209.751147,99.1666667 210.297018,99.8505747 210.979358,99.8505747 C211.798165,99.8505747 212.207569,99.3034483 212.207569,98.4827586 C212.207569,97.7988506 211.798165,97.1149425 210.979358,97.1149425 L210.979358,97.1149425 Z M216.02867,118.452874 L217.529817,118.452874 L217.529817,108.878161 C217.529817,108.331034 217.666284,107.92069 217.802752,107.510345 C218.485092,105.458621 220.259174,103.954023 222.442661,103.954023 C225.581422,103.954023 226.809633,106.552874 226.809633,109.288506 L226.809633,118.452874 L228.31078,118.452874 L228.31078,109.151724 C228.31078,103.270115 224.353211,102.586207 222.852064,102.586207 C220.259174,102.586207 218.348624,103.954023 217.529817,105.732184 L217.393349,102.85977 L216.02867,102.85977 C216.02867,104.090805 216.165138,105.185057 216.165138,106.552874 L216.165138,118.452874 L216.02867,118.452874 Z M242.230505,108.741379 C242.230505,106.005747 241.411697,102.586207 236.908257,102.586207 C235.543578,102.586207 233.769495,102.996552 232.404817,103.954023 L232.950688,105.048276 C234.042431,104.227586 235.40711,103.817241 236.771789,103.817241 C240.456422,103.817241 240.729358,106.826437 240.729358,108.467816 L240.729358,108.878161 C234.451835,108.878161 231.313073,110.929885 231.313073,114.622989 C231.313073,116.674713 232.81422,118.863218 235.816514,118.863218 C238.272936,118.863218 240.047018,117.495402 240.729358,116.264368 L240.865826,116.264368 L241.138761,118.452874 L242.50344,118.452874 C242.366972,117.221839 242.230505,115.990805 242.230505,114.75977 L242.230505,108.741379 Z M240.729358,113.528736 C240.729358,113.802299 240.729358,114.212644 240.59289,114.486207 C240.047018,115.990805 238.545872,117.632184 235.952982,117.632184 C234.315367,117.632184 232.81422,116.674713 232.81422,114.349425 C232.81422,110.656322 237.317661,110.109195 240.729358,110.245977 L240.729358,113.528736 Z M246.461009,118.452874 L247.962156,118.452874 L247.962156,95.4735632 L246.461009,95.4735632 L246.461009,118.452874 Z M259.698394,96.5678161 L259.698394,118.452874 L261.199541,118.452874 L261.199541,107.510345 L273.208716,107.510345 L273.208716,118.452874 L274.709862,118.452874 L274.709862,96.5678161 L273.208716,96.5678161 L273.208716,106.142529 L261.199541,106.142529 L261.199541,96.5678161 L259.698394,96.5678161 Z M291.222477,110.51954 L291.222477,109.562069 C291.222477,107.373563 290.267202,102.586207 285.21789,102.586207 C281.260321,102.586207 278.258028,105.868966 278.258028,111.066667 C278.258028,115.58046 280.987385,118.863218 285.490826,118.863218 C288.220183,118.863218 289.72133,118.17931 290.40367,117.905747 L289.994266,116.674713 C289.175459,117.085057 287.947248,117.495402 285.763761,117.495402 C282.625,117.495402 279.895642,115.58046 279.895642,110.51954 L291.222477,110.51954 Z M279.895642,109.288506 C280.168578,106.826437 281.669725,103.817241 285.081422,103.817241 C288.766055,103.817241 289.72133,107.1 289.72133,109.288506 L279.895642,109.288506 Z M303.777523,108.741379 C303.777523,106.005747 302.958716,102.586207 298.455275,102.586207 C297.090596,102.586207 295.316514,102.996552 293.951835,103.954023 L294.497706,105.048276 C295.58945,104.227586 296.954128,103.817241 298.318807,103.817241 C302.00344,103.817241 302.276376,106.826437 302.276376,108.467816 L302.276376,108.878161 C295.998853,108.878161 292.860092,110.929885 292.860092,114.622989 C292.860092,116.674713 294.361239,118.863218 297.363532,118.863218 C299.819954,118.863218 301.594037,117.495402 302.276376,116.264368 L302.412844,116.264368 L302.68578,118.452874 L304.050459,118.452874 C303.913991,117.221839 303.777523,115.990805 303.777523,114.75977 L303.777523,108.741379 Z M302.276376,113.528736 C302.276376,113.802299 302.276376,114.212644 302.139908,114.486207 C301.594037,115.990805 300.09289,117.632184 297.5,117.632184 C295.862385,117.632184 294.361239,116.674713 294.361239,114.349425 C294.361239,110.656322 298.864679,110.109195 302.276376,110.245977 L302.276376,113.528736 Z M308.008028,118.452874 L309.509174,118.452874 L309.509174,95.4735632 L308.008028,95.4735632 L308.008028,118.452874 Z M314.694954,100.124138 L314.694954,102.996552 L312.102064,102.996552 L312.102064,104.227586 L314.694954,104.227586 L314.694954,114.075862 C314.694954,115.717241 314.96789,116.948276 315.650229,117.768966 C316.196101,118.452874 317.151376,118.863218 318.243119,118.863218 C319.198394,118.863218 319.880734,118.726437 320.426606,118.452874 L320.290138,117.221839 C319.880734,117.358621 319.334862,117.495402 318.516055,117.495402 C316.87844,117.495402 316.196101,116.264368 316.196101,114.212644 L316.196101,104.090805 L320.563073,104.090805 L320.563073,102.85977 L316.196101,102.85977 L316.196101,99.4402299 L314.694954,100.124138 Z M323.292431,118.452874 L324.793578,118.452874 L324.793578,108.878161 C324.793578,108.331034 324.793578,107.783908 325.066514,107.373563 C325.748853,105.458621 327.522936,103.817241 329.706422,103.817241 C332.845183,103.817241 333.936927,106.416092 333.936927,109.151724 L333.936927,118.316092 L335.438073,118.316092 L335.438073,108.878161 C335.438073,103.133333 331.480505,102.312644 330.115826,102.312644 C328.887615,102.312644 327.795872,102.586207 326.977064,103.133333 C326.021789,103.68046 325.33945,104.501149 324.793578,105.458621 L324.793578,95.2 L323.292431,95.2 L323.292431,118.452874 L323.292431,118.452874 Z" id="Fill-1" fill="#000000"></path>
                <path d="M62.9116972,75.2298851 L78.6055046,75.2298851 L74.6479358,3.82988506 L53.6318807,3.82988506 L45.9896789,27.4931034 C43.6697248,35.4264368 41.2133028,44.8643678 39.1662844,53.0712644 L38.8933486,53.0712644 C37.2557339,44.7275862 35.0722477,35.7 32.8887615,27.4931034 L25.9288991,3.82988506 L4.50344037,3.82988506 L0,75.2298851 L14.875,75.2298851 L16.103211,48.1471264 C16.6490826,39.2563218 16.9220183,28.1770115 17.331422,18.6022989 L17.6043578,18.6022989 C19.2419725,27.9034483 21.6983945,38.0252874 24.0183486,46.5057471 L31.6605505,73.9988506 L44.2155963,73.9988506 L52.8130734,46.0954023 C55.5424312,37.7517241 58.5447248,27.6298851 60.728211,18.4655172 L61.0011468,18.4655172 C61.0011468,28.8609195 61.2740826,39.2563218 61.6834862,47.7367816 L62.9116972,75.2298851 Z M132.237385,54.4390805 C132.510321,53.208046 132.783257,50.8827586 132.783257,48.1471264 C132.783257,35.2896552 126.505734,22.2954023 109.720183,22.2954023 C91.706422,22.2954023 83.6548165,36.7942529 83.6548165,49.9252874 C83.6548165,66.0655172 93.7534404,76.4609195 111.22133,76.4609195 C118.181193,76.4609195 124.595183,75.2298851 129.917431,73.1781609 L127.870413,62.2356322 C123.50344,63.6034483 119.136468,64.2873563 113.541284,64.2873563 C106.03555,64.2873563 99.4850917,61.1413793 98.9392202,54.4390805 L132.237385,54.4390805 Z M98.8027523,43.3597701 C99.212156,38.9827586 101.941514,32.8275862 108.764908,32.8275862 C116.134174,32.8275862 117.908257,39.3931034 117.908257,43.3597701 L98.8027523,43.3597701 Z M172.768349,0 L172.768349,28.0402299 L172.495413,28.0402299 C170.175459,24.483908 165.262615,22.1586207 158.848624,22.1586207 C146.430046,22.1586207 135.649083,32.2804598 135.649083,49.6517241 C135.649083,65.791954 145.474771,76.1873563 157.756881,76.1873563 C164.443807,76.1873563 170.584862,73.1781609 173.860092,67.4333333 L174.133028,67.4333333 L174.815367,75.0931034 L189.144495,75.0931034 C188.87156,71.5367816 188.735092,65.5183908 188.735092,59.6367816 L188.735092,0 L172.768349,0 Z M172.768349,52.1137931 C172.768349,53.4816092 172.631881,54.7126437 172.358945,55.8068966 C171.40367,60.3206897 167.719037,63.6034483 163.079128,63.6034483 C156.392202,63.6034483 152.025229,58.1321839 152.025229,49.2413793 C152.025229,41.0344828 155.84633,34.4689655 163.079128,34.4689655 C167.991972,34.4689655 171.540138,38.0252874 172.495413,42.4022989 C172.631881,43.2229885 172.768349,44.454023 172.768349,45.2747126 L172.768349,52.1137931 L172.768349,52.1137931 Z M248.235092,60.5942529 C245.09633,61.8252874 239.637615,62.9195402 234.861239,62.9195402 C220.53211,62.9195402 212.071101,53.891954 212.071101,39.6666667 C212.071101,23.8 222.033257,16.0034483 234.724771,16.0034483 C240.456422,16.0034483 244.959862,17.2344828 248.235092,18.6022989 L251.510321,5.74482759 C248.644495,4.24022989 242.366972,2.59885057 233.905963,2.59885057 C212.344037,2.59885057 195.012615,16.1402299 195.012615,40.4873563 C195.012615,60.8678161 207.704128,76.3241379 232.268349,76.3241379 C240.865826,76.3241379 247.552752,74.6827586 250.555046,73.1781609 L248.235092,60.5942529 Z M279.349771,22.2954023 C262.700688,22.2954023 251.783257,32.9643678 251.783257,49.7885057 C251.783257,66.4758621 263.383028,76.4609195 278.530963,76.4609195 C292.31422,76.4609195 305.824541,67.8436782 305.824541,48.8310345 C305.688073,33.1011494 295.180046,22.2954023 279.349771,22.2954023 L279.349771,22.2954023 Z M278.803899,33.6482759 C286.036697,33.6482759 289.038991,41.4448276 289.038991,49.2413793 C289.038991,58.5425287 285.081422,64.8344828 278.803899,64.8344828 C271.980505,64.8344828 268.295872,58.1321839 268.295872,49.2413793 C268.295872,41.5816092 271.161697,33.6482759 278.803899,33.6482759 L278.803899,33.6482759 Z M311.283257,75.2298851 L327.386468,75.2298851 L327.386468,45.2747126 C327.386468,43.7701149 327.659404,42.2655172 328.068807,41.308046 C329.16055,38.2988506 331.75344,35.2896552 336.256881,35.2896552 C342.125,35.2896552 344.444954,39.8034483 344.444954,46.5057471 L344.444954,75.2298851 L360.275229,75.2298851 L360.275229,44.454023 C360.275229,29.2712644 352.360092,22.1586207 341.852064,22.1586207 C333.254587,22.1586207 328.068807,27.0827586 325.885321,30.3655172 L325.612385,30.3655172 L324.930046,23.2528736 L311.010321,23.2528736 C311.283257,27.7666667 311.419725,33.3747126 311.419725,39.8034483 L311.419725,75.2298851 L311.283257,75.2298851 Z M368.736239,75.2298851 L384.83945,75.2298851 L384.83945,45.2747126 C384.83945,43.7701149 385.112385,42.2655172 385.521789,41.308046 C386.613532,38.2988506 389.206422,35.2896552 393.709862,35.2896552 C399.577982,35.2896552 401.897936,39.8034483 401.897936,46.5057471 L401.897936,75.2298851 L418.001147,75.2298851 L418.001147,44.454023 C418.001147,29.2712644 410.086009,22.1586207 399.577982,22.1586207 C390.980505,22.1586207 385.794725,27.0827586 383.611239,30.3655172 L383.338303,30.3655172 L382.655963,23.2528736 L368.736239,23.2528736 C369.009174,27.7666667 369.145642,33.3747126 369.145642,39.8034483 L369.145642,75.2298851 L368.736239,75.2298851 Z M471.905963,54.4390805 C472.178899,53.208046 472.451835,50.8827586 472.451835,48.1471264 C472.451835,35.2896552 466.174312,22.2954023 449.388761,22.2954023 C431.375,22.2954023 423.323394,36.7942529 423.323394,49.9252874 C423.323394,66.0655172 433.422018,76.4609195 450.889908,76.4609195 C457.849771,76.4609195 464.263761,75.2298851 469.586009,73.1781609 L467.538991,62.2356322 C463.172018,63.6034483 458.805046,64.2873563 453.209862,64.2873563 C445.704128,64.2873563 439.15367,61.1413793 438.607798,54.4390805 L471.905963,54.4390805 Z M438.47133,43.3597701 C438.880734,38.9827586 441.610092,32.8275862 448.433486,32.8275862 C455.802752,32.8275862 457.576835,39.3931034 457.576835,43.3597701 L438.47133,43.3597701 Z M515.166284,61.962069 C512.709862,63.0563218 509.844037,63.6034483 506.022936,63.6034483 C498.244266,63.6034483 491.830275,58.6793103 491.830275,49.1045977 C491.693807,40.6241379 497.152523,34.6057471 505.613532,34.6057471 C509.844037,34.6057471 512.709862,35.2896552 514.620413,36.2471264 L517.213303,24.3471264 C513.801606,23.116092 509.161697,22.2954023 504.931193,22.2954023 C485.68922,22.2954023 475.317661,34.7425287 475.317661,49.7885057 C475.317661,66.0655172 485.962156,76.3241379 502.747706,76.3241379 C508.888761,76.3241379 514.211009,75.0931034 517.076835,73.862069 L515.166284,61.962069 Z M525.537844,13.6781609 L525.537844,23.3896552 L518.71445,23.3896552 L518.71445,35.2896552 L525.537844,35.2896552 L525.537844,56.4908046 C525.537844,63.7402299 527.038991,68.8011494 530.041284,71.8103448 C532.634174,74.4091954 536.864679,76.3241379 542.050459,76.3241379 C546.553899,76.3241379 550.375,75.6402299 552.558486,74.8195402 L552.422018,62.645977 C550.784404,62.9195402 549.829128,63.0563218 547.645642,63.0563218 C542.732798,63.0563218 541.368119,60.183908 541.368119,53.891954 L541.368119,35.2896552 L552.831422,35.2896552 L552.831422,23.3896552 L541.368119,23.3896552 L541.368119,9.30114943 L525.537844,13.6781609 Z M573.438073,23.3896552 L575.075688,23.3896552 C576.713303,23.3896552 577.668578,24.2103448 577.941514,25.9885057 C578.21445,27.4931034 578.623853,28.9977011 579.169725,29.5448276 L585.037844,29.5448276 C584.764908,28.8609195 584.355505,27.9034483 583.809633,25.5781609 C583.263761,23.116092 582.172018,21.7482759 580.261468,21.2011494 L580.261468,20.9275862 C582.581422,20.2436782 584.219037,18.8758621 584.219037,17.0977011 C584.219037,15.4563218 583.536697,14.0885057 582.444954,13.4045977 C581.216743,12.583908 579.442661,12.0367816 575.62156,12.0367816 C572.073394,12.0367816 569.344037,12.4471264 568.252294,12.7206897 L568.252294,29.5448276 L573.438073,29.5448276 L573.438073,23.3896552 Z M573.711009,15.8666667 C574.120413,15.8666667 574.802752,15.7298851 575.348624,15.7298851 C577.122706,15.7298851 578.350917,16.4137931 578.350917,17.7816092 C578.350917,19.0126437 577.122706,19.8333333 575.212156,19.8333333 L573.711009,19.8333333 L573.711009,15.8666667 L573.711009,15.8666667 Z M575.758028,2.59885057 C565.25,2.59885057 556.925459,10.8057471 556.925459,20.7908046 C556.925459,30.9126437 565.25,39.1195402 575.758028,39.1195402 C586.266055,39.1195402 594.454128,30.9126437 594.454128,20.7908046 C594.454128,10.8057471 586.266055,2.59885057 575.758028,2.59885057 L575.758028,2.59885057 Z M575.758028,7.24942529 C583.536697,7.24942529 589.131881,13.2678161 589.131881,20.9275862 C589.131881,28.5873563 583.536697,34.7425287 575.894495,34.7425287 C568.252294,34.7425287 562.65711,28.5873563 562.65711,21.0643678 C562.65711,13.2678161 568.252294,7.24942529 575.758028,7.24942529 L575.758028,7.24942529 Z" id="Fill-3" fill="#FFFFFF"></path>
            </g>
        </g>
    </g>
</svg>